<?xml version="1.0" encoding="UTF-8"?>
<svg width="386px" height="443px" viewBox="0 0 386 443" version="1.1" xmlns="http://www.w3.org/2000/svg" xmlns:xlink="http://www.w3.org/1999/xlink">
    <!-- Generator: Sketch 48.2 (47327) - http://www.bohemiancoding.com/sketch -->
    <title>nodeschool-sticker-guide copy 3</title>
    <desc>Created with Sketch.</desc>
    <defs>
        <path d="M370.600005,321.788676 L186.099871,428.311395 C185.790539,428.489991 185.409435,428.490035 185.100062,428.311512 L0.500196749,321.788637 C0.190684803,321.610034 6.85402527e-14,321.279845 4.81836793e-14,320.922498 L1.31006317e-14,107.777232 C2.90458483e-15,107.42003 0.19053205,107.089951 0.499846777,106.911295 L185.099712,0.288959463 C185.409263,0.110166977 185.790711,0.1102115 186.100221,0.289076246 L370.600355,106.911257 C370.909556,107.089943 371.1,107.419958 371.1,107.777077 L371.1,320.922654 C371.1,321.279917 370.909403,321.610043 370.600005,321.788676 Z" id="path-1"></path>
    </defs>
    <g id="---" stroke="none" stroke-width="1" fill="none" fill-rule="evenodd" transform="translate(-55.000000, -67.000000)">
        <g id="nodeschool-sticker-guide-copy-3" transform="translate(62.000000, 74.000000)">
            <mask id="mask-2" fill="white">
                <use xlink:href="#path-1"></use>
            </mask>
            <use id="Shape" stroke="#000000" stroke-width="14" fill-rule="nonzero" xlink:href="#path-1"></use>
            <g id="shutterstock_593435495-copy" mask="url(#mask-2)">
                <g transform="translate(1.000000, 154.000000)">
                    <path d="M21.7443377,163.144977 C43.0314025,163.144977 58.9966185,163.144977 69.6399859,163.144977 C72.903918,163.144977 77.7963108,149.103408 77.5076343,147.056436 C76.4815843,139.780836 71.4794024,133.658511 64.6023836,132.176852 C58.0351058,130.762049 51.4559393,133.910578 47.8417966,140.19988 C47.224539,141.273463 46.0095213,141.833277 44.8111476,141.592872 C43.7197716,141.374763 42.6241157,141.257468 41.5546148,141.243897 C41.4790031,141.242928 41.4029159,141.242443 41.3277798,141.242443 C30.6536945,141.242443 21.8913005,150.816956 21.7457837,162.701489 C21.744357,162.848833 21.7438815,162.996663 21.7443377,163.144977 Z M69.6387617,169 C58.3969022,169 41.534113,169 19.050394,169 C17.5918972,169 16.3645153,167.885704 16.1971234,166.408377 C16.0525577,165.132195 15.9869325,163.860376 16.0021499,162.627816 C16.1866614,147.540954 27.5193767,135.387905 41.3268287,135.387905 C41.4271687,135.387905 41.5256065,135.38839 41.6259466,135.389359 C42.3982318,135.399537 43.1786013,135.44946 43.9603975,135.539612 C48.9854825,128.292568 57.5243704,124.666622 65.7907708,126.448817 C72.5913792,127.914003 78.0387774,132.688912 81,138.933339 C77.6048781,143.368092 70.3475955,163.713307 69.6387617,169 Z" id="Fill-2" fill="#000000" fill-rule="evenodd"></path>
                    <path d="M0.821851105,169 C0.368064133,169 0.000136105786,167.696449 3.77285997e-08,166.088703 C-0.000136030329,164.480476 0.367791997,163.176924 0.821715037,163.176442 L371.178149,163 C371.632616,163 372,164.303551 372,165.911297 C372,167.519524 371.632616,168.823076 371.178149,168.823558 L0.821851105,169" id="Fill-163" fill="#000000" fill-rule="evenodd"></path>
                    <path d="M111,13.537037 C111,15.101924 109.593804,16.3703704 107.858974,16.3703704 C106.124145,16.3703704 104.717949,15.101924 104.717949,13.537037 C104.717949,11.9721501 106.124145,10.7037037 107.858974,10.7037037 C109.593804,10.7037037 111,11.9721501 111,13.537037" id="Fill-164" fill="#000000" fill-rule="evenodd"></path>
                    <path d="M91.186656,17 C89.6120249,17 88.3348504,15.7222238 88.3348504,14.1462682 C88.3348504,9.49306463 84.552903,5.70793607 79.9036101,5.70793607 C75.2547893,5.70793607 71.4728419,9.49306463 71.4728419,14.1462682 C71.4728419,15.7222238 70.1961395,17 68.6210363,17 C67.0459331,17 65.7692308,15.7222238 65.7692308,14.1462682 C65.7692308,6.34587908 72.1097766,0 79.9036101,0 C87.6974436,0 94.0384615,6.34587908 94.0384615,14.1462682 C94.0384615,15.7222238 92.7617592,17 91.186656,17" id="Fill-165" fill="#000000" fill-rule="evenodd"></path>
                    <path d="M99.9250003,16.3703704 L91.29343,16.3703704 C89.6873213,16.3703704 88.3846154,15.1018327 88.3846154,13.5372716 C88.3846154,11.9722414 89.6873213,10.7037037 91.29343,10.7037037 L99.9250003,10.7037037 C101.531591,10.7037037 102.833333,11.9722414 102.833333,13.5372716 C102.833333,15.1018327 101.531591,16.3703704 99.9250003,16.3703704" id="Fill-166" fill="#000000" fill-rule="evenodd"></path>
                    <path d="M67.9985868,16.3703704 L64.796285,16.3703704 C63.2518468,16.3703704 62,15.1018327 62,13.5372716 C62,11.9722414 63.2518468,10.7037037 64.796285,10.7037037 L67.9985868,10.7037037 C69.543025,10.7037037 70.7948718,11.9722414 70.7948718,13.5372716 C70.7948718,15.1018327 69.543025,16.3703704 67.9985868,16.3703704" id="Fill-167" fill="#000000" fill-rule="evenodd"></path>
                    <path d="M301,45.1666667 C301,46.7315536 302.395619,48 304.116883,48 C305.838147,48 307.233766,46.7315536 307.233766,45.1666667 C307.233766,43.6017797 305.838147,42.3333333 304.116883,42.3333333 C302.395619,42.3333333 301,43.6017797 301,45.1666667" id="Fill-168" fill="#000000" fill-rule="evenodd"></path>
                    <path d="M342.429712,48 C340.869449,48 339.599685,46.7222238 339.599685,45.1462682 C339.599685,40.4930646 335.846618,36.7079361 331.236109,36.7079361 C326.620915,36.7079361 322.867848,40.4930646 322.867848,45.1462682 C322.867848,46.7222238 321.602769,48 320.03782,48 C318.472871,48 317.207792,46.7222238 317.207792,45.1462682 C317.207792,37.3458791 323.500387,31 331.236109,31 C338.967145,31 345.25974,37.3458791 345.25974,45.1462682 C345.25974,46.7222238 343.994662,48 342.429712,48" id="Fill-169" fill="#000000" fill-rule="evenodd"></path>
                    <path d="M320.554909,48 L311.990545,48 C310.394286,48 309.103896,46.7314623 309.103896,45.1669012 C309.103896,43.601871 310.394286,42.3333333 311.990545,42.3333333 L320.554909,42.3333333 C322.151169,42.3333333 323.441558,43.601871 323.441558,45.1669012 C323.441558,46.7314623 322.151169,48 320.554909,48" id="Fill-170" fill="#000000" fill-rule="evenodd"></path>
                    <path d="M346.225646,48 L343.047081,48 C341.517512,48 340.272727,46.7314623 340.272727,45.1669012 C340.272727,43.601871 341.517512,42.3333333 343.047081,42.3333333 L346.225646,42.3333333 C347.759809,42.3333333 349,43.601871 349,45.1669012 C349,46.7314623 347.759809,48 346.225646,48" id="Fill-171" fill="#000000" fill-rule="evenodd"></path>
                    <polyline id="Fill-172" fill="#000000" fill-rule="evenodd" points="236 40 118 116 236 40"></polyline>
                    <path d="M110.737789,116.330543 L116.325625,112.727725 C168.063738,79.7954053 206.867322,55.0961658 232.736379,38.6300061 C233.354556,38.2365242 236.262941,43.1707866 235.557224,43.619992 C209.746527,60.0491079 171.030483,84.6927818 119.40909,117.551014 C118.93157,117.855074 118.397565,118 117.870206,118 C117.239209,118 114.861737,117.443514 110.737789,116.330543 Z" id="Fill-173" fill="#000000" fill-rule="evenodd"></path>
                    <path d="M77.9696416,163.29086 L236.822616,163.29086 C239.599523,152.618032 241.577936,145.153269 242.757854,140.896573 C227.748248,123.559881 197.790554,111.709613 163.361555,111.709613 C115.514393,111.709613 80.4241688,134.59722 77.9696416,163.29086 Z M239.045586,169 L70.863141,169 C69.281777,169 68,167.721954 68,166.145666 C68,149.818915 78.1020525,134.570751 96.4446419,123.209662 C114.3625,112.111838 138.127993,106 163.361555,106 C188.595592,106 212.360611,112.111838 230.278943,123.209662 C233.791032,125.38499 238.364718,128.946443 244,133.894019 L239.045586,169 Z" id="Fill-175" fill="#000000" fill-rule="evenodd"></path>
                    <path d="M251.97079,23 C251.97079,23 258.512369,79.7999048 296.307421,117.666508 C334.102474,155.533111 353,165 353,165 L236.707421,165 C236.707421,165 255.604948,113.524506 243.249001,82.0980539 C230.892579,50.6716019 204,23 204,23 L251.97079,23" id="Fill-176" fill="none"></path>
                    <path d="M240.665792,163.238307 L343.118777,163.238307 C334.020584,156.937126 317.794283,144.278478 294.303711,120.743735 C274.352911,100.755015 263.119904,75.5846354 257.20965,57.989029 C252.317764,43.4266708 250.186759,31.7229785 249.425005,26.76217 L210.419419,26.76217 C218.70682,36.1490692 236.352363,57.8278027 245.865236,82.0222386 C256.644524,109.438338 244.848771,150.45707 240.665792,163.238307 Z M353.124409,169 L236.637545,169 C235.697732,169 234.81743,168.539694 234.279442,167.767907 C233.74193,166.995643 233.614336,166.008728 233.938557,165.125322 C234.123758,164.619701 252.342045,114.216932 240.514394,84.1339212 C228.488687,53.5476743 202.080599,26.1635339 201.815413,25.8906895 C201.008907,25.060708 200.777048,23.8276609 201.226007,22.76061 C201.675917,21.6935592 202.719519,21 203.87548,21 L251.926413,21 C253.386123,21 254.614451,22.0971019 254.782513,23.5500464 C254.847738,24.1090914 261.690188,79.9196189 298.370046,116.669193 C335.469344,153.839006 354.225143,163.449618 354.409868,163.542157 C355.602965,164.139839 356.229031,165.480688 355.922901,166.780992 C355.616295,168.081296 354.457954,169 353.124409,169 Z" id="Fill-177" fill="#000000" fill-rule="evenodd"></path>
                    <polyline id="Fill-178" fill="#000000" fill-rule="evenodd" points="322 157 310 157 322 157"></polyline>
                    <path d="M323.053205,160 L309.946795,160 C308.319228,160 307,158.656954 307,157 C307,155.343046 308.319228,154 309.946795,154 L323.053205,154 C324.680772,154 326,155.343046 326,157 C326,158.656954 324.680772,160 323.053205,160" id="Fill-179" fill="#000000" fill-rule="evenodd"></path>
                    <polyline id="Fill-180" fill="#000000" fill-rule="evenodd" points="306 140 299 140 306 140"></polyline>
                    <path d="M305.158984,143 L298.841016,143 C297.271872,143 296,141.656954 296,140 C296,138.343046 297.271872,137 298.841016,137 L305.158984,137 C306.728128,137 308,138.343046 308,140 C308,141.656954 306.728128,143 305.158984,143" id="Fill-181" fill="#000000" fill-rule="evenodd"></path>
                    <polyline id="Fill-182" fill="none" points="235.209596 45 246 45 238.790404 33 228 33 235.209596 45"></polyline>
                    <path d="M236.81131,43.1989702 L241.020759,43.1989702 L237.188873,36.8010298 L232.979425,36.8010298 L236.81131,43.1989702 Z M246.120723,49 L235.185691,49 C234.176949,49 233.241621,48.4679188 232.720565,47.5977643 L225.413859,35.3987941 C224.877547,34.5027079 224.861339,33.3852413 225.371907,32.4742683 C225.882476,31.5632954 226.840685,31 227.879461,31 L238.814493,31 C239.823235,31 240.758562,31.5320812 241.279618,32.4022357 L248.586325,44.6012059 C249.122636,45.4968119 249.138368,46.6142785 248.628276,47.5252514 C248.117231,48.4362244 247.159498,49 246.120723,49 Z" id="Fill-183" fill="#000000" fill-rule="evenodd"></path>
                    <polyline id="Fill-184" fill="#000000" fill-rule="evenodd" points="262 90 257 90 262 90"></polyline>
                    <path d="M262.14568,93 L256.85432,93 C255.277828,93 254,91.6569536 254,90 C254,88.3430464 255.277828,87 256.85432,87 L262.14568,87 C263.722172,87 265,88.3430464 265,90 C265,91.6569536 263.722172,93 262.14568,93" id="Fill-185" fill="#000000" fill-rule="evenodd"></path>
                    <polyline id="Fill-186" fill="#000000" fill-rule="evenodd" points="257 77 252 77 257 77"></polyline>
                    <path d="M257.145803,80 L251.854197,80 C250.277773,80 249,78.6568425 249,76.9997516 C249,75.3426608 250.277773,74 251.854197,74 L257.145803,74 C258.721754,74 260,75.3426608 260,76.9997516 C260,78.6568425 258.721754,80 257.145803,80" id="Fill-187" fill="#000000" fill-rule="evenodd"></path>
                    <polyline id="Fill-188" fill="#000000" fill-rule="evenodd" points="251 64 246 64 251 64"></polyline>
                    <path d="M251.14568,68 L245.853847,68 C244.277828,68 243,66.6568425 243,65.0002484 C243,63.3431575 244.277828,62 245.853847,62 L251.14568,62 C252.7217,62 254,63.3431575 254,65.0002484 C254,66.6568425 252.7217,68 251.14568,68" id="Fill-189" fill="#000000" fill-rule="evenodd"></path>
                    <polyline id="Fill-190" fill="#000000" fill-rule="evenodd" points="269 102 264 102 269 102"></polyline>
                    <path d="M269.14568,105 L263.853847,105 C262.277828,105 261,103.656954 261,102 C261,100.343046 262.277828,99 263.853847,99 L269.14568,99 C270.7217,99 272,100.343046 272,102 C272,103.656954 270.7217,105 269.14568,105" id="Fill-191" fill="#000000" fill-rule="evenodd"></path>
                    <polyline id="Fill-192" fill="#000000" fill-rule="evenodd" points="278 113 273 113 278 113"></polyline>
                    <path d="M279.146153,117 L273.85432,117 C272.277828,117 271,115.656954 271,114 C271,112.343046 272.277828,111 273.85432,111 L279.146153,111 C280.722172,111 282,112.343046 282,114 C282,115.656954 280.722172,117 279.146153,117" id="Fill-193" fill="#000000" fill-rule="evenodd"></path>
                    <polyline id="Fill-194" fill="#000000" fill-rule="evenodd" points="290 126 285 126 290 126"></polyline>
                    <path d="M290.14568,130 L284.85432,130 C283.277828,130 282,128.656954 282,127 C282,125.343046 283.277828,124 284.85432,124 L290.14568,124 C291.722172,124 293,125.343046 293,127 C293,128.656954 291.722172,130 290.14568,130" id="Fill-195" fill="#000000" fill-rule="evenodd"></path>
                    <path d="M181.250586,168.986197 C179.655731,168.831979 178.489374,167.425937 178.645017,165.845686 C179.516902,156.994376 179.355976,148.045015 178.167521,139.246539 C176.796523,129.102946 174.065575,119.164975 170.050097,109.707744 C169.428968,108.244108 174.777014,106.014145 175.399104,107.478258 C179.613458,117.404328 182.479873,127.835889 183.918604,138.483068 C185.166626,147.719445 185.335238,157.113371 184.420119,166.404009 C184.274084,167.889064 183.011171,169 181.53593,169 C181.441776,169 181.346661,168.99524 181.250586,168.986197 Z" id="Fill-197" fill="#000000" fill-rule="evenodd"></path>
                    <path d="M194.799906,166.538305 C195.650546,157.679984 195.493072,148.723534 194.333577,139.918089 C192.653856,127.167937 191.090834,121.924208 188.22209,114.993701 C187.616097,113.529382 188.29286,111.842604 189.733559,111.226199 C191.174726,110.609318 192.833826,111.297653 193.440756,112.762448 C196.449632,120.032121 198.190281,125.836045 199.944522,139.15449 C201.162601,148.397706 201.327105,157.799073 200.434284,167.097547 C200.291808,168.583779 194.648056,168.120284 194.799906,166.538305 Z" id="Fill-199" fill="#000000" fill-rule="evenodd"></path>
                    <path d="M210,115 C213.561911,122.433453 213.89743,125.246895 215.809346,137.786927 C217.434448,148.442938 217.167115,157.747109 216.360788,165 L210,115" id="Fill-200" fill="#000000" fill-rule="evenodd"></path>
                    <path d="M215.255757,168.986156 C213.663024,168.831488 212.497739,167.421332 212.653174,165.836458 C213.5239,156.958777 213.363187,147.983234 212.176313,139.159496 L211.994013,137.804715 C210.478518,126.521081 210.118713,123.840161 207.227327,117.002289 C206.607025,115.534372 211.948438,113.297885 212.56922,114.765803 C215.759963,122.313527 216.179255,125.433151 217.737926,137.040443 L217.919747,138.393792 C219.166109,147.656712 219.334977,157.07812 218.421074,166.396415 C218.274754,167.885814 217.014,169 215.540722,169 C215.446214,169 215.351705,168.995226 215.255757,168.986156 Z" id="Fill-201" fill="#000000" fill-rule="evenodd"></path>
                    <path d="M232.144424,167.986268 C230.504412,167.832845 229.30503,166.43357 229.46508,164.861931 C230.361652,156.055262 230.196169,147.151992 228.974064,138.399778 C227.521765,128.004896 225.025193,125.587537 225,125.564334 C225.125965,125.680822 225.205495,125.716337 225.205495,125.716337 C229.252403,124.054693 231.848711,125.061592 232.99442,128.737034 C233.702184,131.007543 234.367948,133.917175 234.887985,137.640713 C236.171344,146.828099 236.34473,156.173644 235.4037,165.417379 C235.25353,166.894786 233.954858,167.999526 232.437848,168 C232.341028,168 232.24322,167.995265 232.144424,167.986268 Z" id="Fill-203" fill="#000000" fill-rule="evenodd"></path>
                    <path d="M143.575634,167.091052 C142.666928,157.729075 142.834836,148.262532 144.07411,138.954756 C145.502758,128.224312 148.349082,117.712113 152.533422,107.709792 C152.705623,107.299204 152.96941,106.933704 153.304272,106.642551 L230.233735,39.7061878 C231.311303,38.7684552 232.90929,38.7641382 233.992105,39.696115 C235.07492,40.6280917 235.317718,42.2162415 234.562133,43.4316965 L191.774251,112.305401 C190.931372,113.662355 189.15403,114.075342 187.804089,113.227305 C186.454625,112.379748 186.044395,110.59254 186.887274,109.235586 L219.544874,56.6683564 L157.586876,110.57815 C153.740737,119.921421 151.116223,129.723725 149.784885,139.723648 C148.604283,148.590138 148.444961,157.60868 149.310736,166.528412 C149.465288,168.120879 143.721122,168.588067 143.575634,167.091052 Z" id="Fill-204" fill="#000000" fill-rule="evenodd"></path>
                    <path d="M126.565376,167.097309 C125.673019,157.799307 125.837524,148.397935 127.055142,139.154237 C128.809393,125.835786 130.550053,120.031859 133.559416,112.762182 C134.165882,111.297862 135.824523,110.609527 137.266168,111.225932 C138.707344,111.842338 139.384111,113.529116 138.777645,114.993912 C135.908885,121.923947 134.345853,127.167679 132.666121,139.917837 C131.50615,148.723287 131.349612,157.679742 132.200258,166.538543 C132.352109,168.120047 126.708322,168.584018 126.565376,167.097309 Z" id="Fill-206" fill="#000000" fill-rule="evenodd"></path>
                    <path d="M112.459533,169 C110.985785,169 109.725039,167.885808 109.578719,166.396399 C108.665302,157.078524 108.833689,147.657059 110.080043,138.394083 L110.261383,137.045022 C111.820525,125.434317 112.239335,122.314197 115.430538,114.76595 C116.051796,113.2985 117.749582,112.609171 119.225249,113.225939 C120.700437,113.843662 121.393176,115.534045 120.772398,117.001972 C117.881029,123.840841 117.521227,126.522254 116.005262,137.808344 L115.823922,139.159314 C114.636575,147.983106 114.475864,156.958703 115.346584,165.836439 C115.502019,167.420845 114.33674,168.831487 112.744017,168.986156 C112.648549,168.995226 112.553562,169 112.459533,169" id="Fill-208" fill="#000000" fill-rule="evenodd"></path>
                    <path d="M100,124 C100,124 96.2373771,126.124463 94.2425772,138.387987 C92.5470255,148.808636 92.8253828,157.907304 93.6666655,165 L100,124" id="Fill-209" fill="#000000" fill-rule="evenodd"></path>
                    <path d="M91.5958611,165.430022 C90.6553293,156.232478 90.8287151,146.932682 92.1125608,137.789327 C92.6696774,133.818849 93.3941848,130.778387 94.1584102,128.453911 C94.9877579,125.931358 99.8677964,123.244922 100.420661,124.013617 C100.689936,124.388015 101.147885,125.02474 101.794506,125.923794 C101.794506,125.923794 101.874036,125.888453 102,125.772064 C101.974807,125.795153 99.4782485,128.200679 98.0264508,138.544676 C96.8038582,147.254989 96.638376,156.114676 97.5349439,164.877293 C97.6949924,166.441709 96.4956167,167.833663 94.8551199,167.986335 C94.7568185,167.995288 94.6590111,168 94.5621916,168 C93.044695,168 91.746524,166.900668 91.5958611,165.430022 Z" id="Fill-210" fill="#000000" fill-rule="evenodd"></path>
                    <path d="M212.069619,118.894574 C210.565871,118.470023 209.685799,116.888639 210.104079,115.362342 L230.450997,41.1004532 C230.702879,40.1805966 231.368988,39.4906352 232.187918,39.180609 C232.727396,38.9763761 235.66942,43.4650723 235.556071,43.8787722 C231.110099,60.1056142 224.441142,84.4458771 215.5492,116.899561 C215.201101,118.168467 214.06557,119 212.828043,119 C212.577262,119 212.322739,118.965808 212.069619,118.894574 Z" id="Fill-211" fill="#000000" fill-rule="evenodd"></path>
                    <path d="M163.49971,169 C161.567017,169 160,167.722979 160,166.147956 L160,108.852517 C160,107.277021 161.567017,106 163.49971,106 C165.432983,106 167,107.277021 167,108.852517 L167,166.147956 C167,167.722979 165.432983,169 163.49971,169" id="Fill-212" fill="#000000" fill-rule="evenodd"></path>
                </g>
            </g>
            <g id="Group" mask="url(#mask-2)" fill="#000000" fill-rule="nonzero">
                <g transform="translate(-7.000000, -6.000000)">
                    <path d="M269.8,78.3 L193.9,34.5 C193.9,34.5 193.9,34.5 193.9,34.5 C193.8,34.4 193.7,34.4 193.6,34.4 C193.6,34.4 193.6,34.4 193.6,34.4 C193.6,34.4 193.6,34.4 193.6,34.4 C193.6,34.4 193.5,34.4 193.5,34.4 C193.5,34.4 193.4,34.4 193.4,34.4 C193.3,34.4 193.2,34.4 193.1,34.4 C193.1,34.4 193.1,34.4 193,34.4 C193,34.4 192.9,34.4 192.9,34.4 C192.8,34.4 192.6,34.4 192.5,34.4 C192.5,34.4 192.5,34.4 192.5,34.4 C192.5,34.4 192.5,34.4 192.5,34.4 C192.5,34.4 192.5,34.4 192.5,34.4 C192.4,34.4 192.3,34.5 192.2,34.5 C192.2,34.5 192.2,34.5 192.2,34.5 L117.5,77.6 C116.6,78.1 116.3,79.2 116.8,80.1 C117.3,81 118.5,81.3 119.3,80.8 L185.7,42.5 L157.5,78.5 C156.9,79.3 157,80.5 157.8,81.1 C158.6,81.7 159.8,81.6 160.4,80.8 L191.2,41.5 L191.2,79.9 C191.2,80.9 192,81.8 193.1,81.8 C194.2,81.8 195,81 195,79.9 L195,41.5 L225.8,80.8 C226.2,81.3 226.7,81.5 227.3,81.5 C227.7,81.5 228.1,81.4 228.4,81.1 C229.2,80.5 229.3,79.3 228.7,78.5 L200.5,42.5 L268.1,81.5 C268.4,81.7 268.7,81.7 269,81.7 C269.6,81.7 270.3,81.4 270.6,80.8 C271,80 270.7,78.8 269.8,78.3 Z" id="Shape"></path>
                    <path d="M269.3,361.2 C268.8,360.3 267.6,360 266.8,360.5 L200.5,398.8 L228.7,362.8 C229.3,362 229.2,360.8 228.4,360.2 C227.6,359.6 226.4,359.7 225.8,360.5 L195,399.8 L195,361.4 C195,360.4 194.2,359.5 193.1,359.5 C192,359.5 191.2,360.3 191.2,361.4 L191.2,399.8 L160.4,360.5 C159.8,359.7 158.6,359.6 157.8,360.2 C157,360.8 156.9,362 157.5,362.8 L185.7,398.8 L118.1,359.8 C117.2,359.3 116.1,359.6 115.6,360.5 C115.1,361.4 115.4,362.5 116.3,363 L192.2,406.8 C192.2,406.8 192.2,406.8 192.3,406.8 C192.4,406.8 192.4,406.9 192.5,406.9 C192.5,406.9 192.5,406.9 192.6,406.9 C192.6,406.9 192.6,406.9 192.7,406.9 C192.7,406.9 192.8,406.9 192.8,406.9 C192.9,406.9 193.1,407 193.2,407 C193.2,407 193.2,407 193.2,407 C193.4,407 193.5,407 193.6,406.9 C193.6,406.9 193.7,406.9 193.7,406.9 C193.7,406.9 193.8,406.9 193.8,406.9 C193.9,406.9 193.9,406.8 194,406.8 C194,406.8 194,406.8 194.1,406.8 L268.8,363.7 C269.5,363.3 269.8,362.1 269.3,361.2 Z" id="Shape"></path>
                    <circle id="Oval" cx="274.3" cy="357.7" r="2.3"></circle>
                    <circle id="Oval" cx="110.8" cy="357.7" r="2.3"></circle>
                    <path d="M126.1,134.6 C126.9,134.6 127.5,134 127.5,133.2 L127.5,126.1 L133.3,133.7 C133.7,134.2 134.1,134.6 134.8,134.6 L134.9,134.6 C135.7,134.6 136.4,134 136.4,133.1 L136.4,122.6 C136.4,121.8 135.8,121.2 135,121.2 C134.2,121.2 133.6,121.8 133.6,122.6 L133.6,129.4 L128,122 C127.6,121.5 127.2,121.1 126.5,121.1 L126.2,121.1 C125.4,121.1 124.7,121.7 124.7,122.6 L124.7,133.1 C124.7,134 125.3,134.6 126.1,134.6 Z" id="Shape"></path>
                    <path d="M146,134.7 C150.1,134.7 153.1,131.6 153.1,127.9 C153.1,124.1 150.2,121.1 146.1,121.1 C142,121.1 139,124.2 139,127.9 C139,131.7 141.9,134.7 146,134.7 Z M142.1,127.9 C142.1,125.6 143.7,123.8 146.1,123.8 C148.4,123.8 150.1,125.7 150.1,128 C150.1,130.3 148.5,132.1 146.1,132.1 C143.7,132 142.1,130.2 142.1,127.9 Z" id="Shape"></path>
                    <path d="M157.1,134.5 L160.8,134.5 C165,134.5 167.8,131.6 167.8,127.9 C167.8,124.2 164.9,121.3 160.8,121.3 L157.1,121.3 C156.3,121.3 155.6,121.9 155.6,122.8 L155.6,133 C155.7,133.9 156.3,134.5 157.1,134.5 Z M158.6,123.9 L160.8,123.9 C163.2,123.9 164.8,125.5 164.8,127.9 C164.8,130.2 163.2,131.9 160.8,131.9 L158.6,131.9 L158.6,123.9 Z" id="Shape"></path>
                    <path d="M171.9,134.5 L179.3,134.5 C180,134.5 180.6,133.9 180.6,133.2 C180.6,132.5 180,131.9 179.3,131.9 L173.3,131.9 L173.3,129.1 L178.3,129.1 C179,129.1 179.6,128.5 179.6,127.8 C179.6,127.1 179,126.5 178.3,126.5 L173.3,126.5 L173.3,123.8 L179.2,123.8 C179.9,123.8 180.5,123.2 180.5,122.5 C180.5,121.8 179.9,121.2 179.2,121.2 L171.9,121.2 C171.1,121.2 170.4,121.8 170.4,122.7 L170.4,133 C170.5,133.9 171.1,134.5 171.9,134.5 Z" id="Shape"></path>
                    <path d="M182.9,133.1 C184.4,134.2 186.1,134.7 187.9,134.7 C190.8,134.7 192.8,133.2 192.8,130.6 C192.8,128.3 191.3,127.3 188.6,126.6 C186.3,126 185.7,125.7 185.7,124.9 C185.7,124.3 186.3,123.7 187.4,123.7 C188.3,123.7 189.2,124 190.2,124.6 C190.4,124.7 190.7,124.8 190.9,124.8 C191.7,124.8 192.3,124.2 192.3,123.5 C192.3,122.9 192,122.5 191.7,122.3 C190.5,121.5 189.1,121.1 187.5,121.1 C184.8,121.1 182.9,122.7 182.9,125.1 C182.9,127.7 184.6,128.5 187.3,129.1 C189.5,129.7 190,130 190,130.8 C190,131.6 189.3,132 188.1,132 C186.8,132 185.7,131.5 184.7,130.8 C184.5,130.7 184.2,130.5 183.9,130.5 C183.1,130.5 182.5,131.1 182.5,131.8 C182.3,132.5 182.6,132.9 182.9,133.1 Z" id="Shape"></path>
                    <path d="M201.4,134.7 C203.5,134.7 204.9,134.1 206.1,133 C206.4,132.8 206.6,132.4 206.6,132 C206.6,131.3 206,130.7 205.2,130.7 C204.9,130.7 204.6,130.8 204.3,131 C203.5,131.7 202.7,132 201.4,132 C199.1,132 197.6,130.1 197.6,127.8 C197.6,125.5 199.2,123.7 201.4,123.7 C202.4,123.7 203.3,124 204.1,124.6 C204.3,124.7 204.6,124.9 205,124.9 C205.8,124.9 206.4,124.3 206.4,123.5 C206.4,123 206.1,122.6 205.8,122.3 C204.7,121.5 203.4,121 201.4,121 C197.3,121 194.5,124.1 194.5,127.8 C194.7,131.7 197.6,134.7 201.4,134.7 Z" id="Shape"></path>
                    <path d="M210.7,134.6 C211.5,134.6 212.2,134 212.2,133.1 L212.2,129.1 L217.6,129.1 L217.6,133.1 C217.6,133.9 218.2,134.6 219.1,134.6 C219.9,134.6 220.6,134 220.6,133.1 L220.6,122.6 C220.6,121.8 220,121.1 219.1,121.1 C218.3,121.1 217.6,121.7 217.6,122.6 L217.6,126.5 L212.2,126.5 L212.2,122.6 C212.2,121.8 211.6,121.1 210.7,121.1 C209.9,121.1 209.2,121.7 209.2,122.6 L209.2,133.1 C209.2,134 209.8,134.6 210.7,134.6 Z" id="Shape"></path>
                    <path d="M230,134.7 C234.1,134.7 237,131.6 237,127.9 C237,124.1 234.1,121.1 230,121.1 C225.9,121.1 222.9,124.2 222.9,127.9 C223,131.7 225.9,134.7 230,134.7 Z M226,127.9 C226,125.6 227.6,123.8 230,123.8 C232.3,123.8 234,125.7 234,128 C234,130.3 232.4,132.1 230,132.1 C227.7,132 226,130.2 226,127.9 Z" id="Shape"></path>
                    <path d="M246.1,134.7 C250.2,134.7 253.2,131.6 253.2,127.9 C253.2,124.1 250.3,121.1 246.2,121.1 C242.1,121.1 239.1,124.2 239.1,127.9 C239.1,131.7 242,134.7 246.1,134.7 Z M242.1,127.9 C242.1,125.6 243.7,123.8 246.1,123.8 C248.4,123.8 250.1,125.7 250.1,128 C250.1,130.3 248.5,132.1 246.1,132.1 C243.8,132 242.1,130.2 242.1,127.9 Z" id="Shape"></path>
                    <path d="M257.2,134.5 L264,134.5 C264.7,134.5 265.3,133.9 265.3,133.2 C265.3,132.5 264.7,131.9 264,131.9 L258.6,131.9 L258.6,122.7 C258.6,121.9 258,121.2 257.1,121.2 C256.3,121.2 255.6,121.8 255.6,122.7 L255.6,133 C255.7,133.9 256.4,134.5 257.2,134.5 Z" id="Shape"></path>
                    <path d="M143.137829,350.137829 C142.837829,349.537829 143.037829,348.837829 143.637829,348.437829 L143.837829,348.337829 C144.337829,348.037829 144.737829,348.137829 145.137829,348.337829 L150.137829,351.037829 L150.337829,345.337829 C150.337829,344.837829 150.537829,344.537829 150.937829,344.237829 L151.137829,344.137829 C151.737829,343.837829 152.437829,344.037829 152.837829,344.637829 L157.337829,352.337829 C157.637829,352.937829 157.437829,353.637829 156.837829,354.037829 C156.237829,354.337829 155.537829,354.137829 155.137829,353.537829 L152.337829,348.737829 L152.137829,352.737829 C152.137829,353.237829 151.937829,353.537829 151.537829,353.837829 C151.137829,354.137829 150.737829,354.037829 150.337829,353.837829 L146.837829,352.037829 L149.637829,356.837829 C149.937829,357.437829 149.737829,358.137829 149.137829,358.437829 C148.537829,358.737829 147.837829,358.537829 147.537829,358.037829 L143.137829,350.137829 Z" id="Shape-Copy"></path>
                    <path d="M191.5,342.2 L189.1,342.2 C188.5,342.2 188,341.7 188,341.1 C188,340.5 188.5,340 189.1,340 L196.3,340 C196.9,340 197.4,340.5 197.4,341.1 C197.4,341.7 196.9,342.2 196.3,342.2 L193.9,342.2 L193.9,350 C193.9,350.7 193.4,351.2 192.7,351.2 C192,351.2 191.5,350.7 191.5,350 L191.5,342.2 Z" id="Shape-Copy-2"></path>
                    <path d="M234.437829,345.637829 C234.737829,345.037829 235.537829,344.837829 236.137829,345.137829 C236.737829,345.437829 236.937829,346.237829 236.637829,346.837829 L232.737829,353.637829 L236.737829,355.937829 C237.237829,356.237829 237.437829,356.937829 237.137829,357.437829 C236.837829,357.937829 236.137829,358.137829 235.637829,357.837829 L230.637829,354.937829 C230.037829,354.637829 229.837829,353.837829 230.137829,353.237829 L234.437829,345.637829 Z" id="Shape-Copy-3"></path>
                </g>
            </g>
        </g>
    </g>
</svg>