<?xml version="1.0" encoding="UTF-8" standalone="no"?>
<!-- Created with Inkscape (http://www.inkscape.org/) -->

<svg
   xmlns:dc="http://purl.org/dc/elements/1.1/"
   xmlns:cc="http://creativecommons.org/ns#"
   xmlns:rdf="http://www.w3.org/1999/02/22-rdf-syntax-ns#"
   xmlns:svg="http://www.w3.org/2000/svg"
   xmlns="http://www.w3.org/2000/svg"
   xmlns:sodipodi="http://sodipodi.sourceforge.net/DTD/sodipodi-0.dtd"
   xmlns:inkscape="http://www.inkscape.org/namespaces/inkscape"
   width="500"
   height="500"
   viewBox="0 0 500.00001 500.00001"
   id="svg5843"
   version="1.1"
   inkscape:version="0.91 r13725"
   sodipodi:docname="NodeSchoolMTL.svg"
   inkscape:export-filename="/home/paul/Documents/NodeSchoolMTL.png"
   inkscape:export-xdpi="90"
   inkscape:export-ydpi="90">
  <defs
     id="defs5845" />
  <sodipodi:namedview
     id="base"
     pagecolor="#ffffff"
     bordercolor="#666666"
     borderopacity="1.0"
     inkscape:pageopacity="0.0"
     inkscape:pageshadow="2"
     inkscape:zoom="0.35"
     inkscape:cx="-112.14286"
     inkscape:cy="520"
     inkscape:document-units="px"
     inkscape:current-layer="layer1"
     showgrid="false"
     units="px"
     inkscape:window-width="1025"
     inkscape:window-height="875"
     inkscape:window-x="170"
     inkscape:window-y="79"
     inkscape:window-maximized="0" />
  <metadata
     id="metadata5848">
    <rdf:RDF>
      <cc:Work
         rdf:about="">
        <dc:format>image/svg+xml</dc:format>
        <dc:type
           rdf:resource="http://purl.org/dc/dcmitype/StillImage" />
        <dc:title></dc:title>
      </cc:Work>
    </rdf:RDF>
  </metadata>
  <g
     inkscape:label="Layer 1"
     inkscape:groupmode="layer"
     id="layer1"
     transform="translate(0,-552.36216)">
    <g
       id="g6441"
       transform="translate(-4.28572,-4.28576)">
      <polygon
         style="fill:#ffcade;fill-opacity:0.27215193"
         id="polygon4906"
         points="890.4,336.9 704.9,444 519.3,336.9 519.3,122.6 704.9,15.4 890.4,122.6 "
         transform="translate(-450.71428,576.09792)" />
      <circle
         id="circle5286"
         r="0.5"
         cy="807.49786"
         cx="255.78569"
         style="fill:none" />
      <g
         id="g5288"
         transform="translate(-450.71428,576.09792)">
        <path
           style="fill:#e33131;fill-opacity:1"
           id="path5290"
           d="m 705,236.7 c 2.9,0 5.3,-2.4 5.3,-5.3 0,-2.9 -2.4,-5.3 -5.3,-5.3 -2.9,0 -5.3,2.4 -5.3,5.3 0,2.9 2.4,5.3 5.3,5.3 z m 0,-5.8 c 0.3,0 0.5,0.2 0.5,0.5 0,0.3 -0.2,0.5 -0.5,0.5 -0.3,0 -0.5,-0.2 -0.5,-0.5 0,-0.3 0.2,-0.5 0.5,-0.5 z"
           inkscape:connector-curvature="0" />
        <path
           style="fill:#ce2123;fill-opacity:1"
           id="path5292"
           d="m 801.5,156.4 c 0,-1.3 -1.1,-2.4 -2.4,-2.4 l -188.6,0 c -1.3,0 -2.4,1.1 -2.4,2.4 0,1.3 1.1,2.4 2.4,2.4 l 188.6,0 c 1.3,0 2.4,-1.1 2.4,-2.4 z"
           inkscape:connector-curvature="0" />
        <path
           style="fill:#e33131;fill-opacity:1"
           id="path5294"
           d="M 781.8,87.3 705.9,43.5 c 0,0 0,0 0,0 -0.1,-0.1 -0.2,-0.1 -0.3,-0.1 0,0 0,0 0,0 0,0 0,0 0,0 0,0 -0.1,0 -0.1,0 0,0 -0.1,0 -0.1,0 -0.1,0 -0.2,0 -0.3,0 0,0 0,0 -0.1,0 0,0 -0.1,0 -0.1,0 -0.1,0 -0.3,0 -0.4,0 0,0 0,0 0,0 0,0 0,0 0,0 0,0 0,0 0,0 -0.1,0 -0.2,0.1 -0.3,0.1 0,0 0,0 0,0 l -74.7,43.1 c -0.9,0.5 -1.2,1.6 -0.7,2.5 0.5,0.9 1.7,1.2 2.5,0.7 l 66.4,-38.3 -28.2,36 c -0.6,0.8 -0.5,2 0.3,2.6 0.8,0.6 2,0.5 2.6,-0.3 l 30.8,-39.3 0,38.4 c 0,1 0.8,1.9 1.9,1.9 1.1,0 1.9,-0.8 1.9,-1.9 l 0,-38.4 30.8,39.3 c 0.4,0.5 0.9,0.7 1.5,0.7 0.4,0 0.8,-0.1 1.1,-0.4 0.8,-0.6 0.9,-1.8 0.3,-2.6 l -28.2,-36 67.6,39 c 0.3,0.2 0.6,0.2 0.9,0.2 0.6,0 1.3,-0.3 1.6,-0.9 0.4,-0.8 0.1,-2 -0.8,-2.5 z"
           inkscape:connector-curvature="0" />
        <path
           style="fill:#e33131;fill-opacity:1"
           id="path5296"
           d="m 781.3,370.2 c -0.5,-0.9 -1.7,-1.2 -2.5,-0.7 l -66.3,38.3 28.2,-36 c 0.6,-0.8 0.5,-2 -0.3,-2.6 -0.8,-0.6 -2,-0.5 -2.6,0.3 l -30.8,39.3 0,-38.4 c 0,-1 -0.8,-1.9 -1.9,-1.9 -1.1,0 -1.9,0.8 -1.9,1.9 l 0,38.4 -30.8,-39.3 c -0.6,-0.8 -1.8,-0.9 -2.6,-0.3 -0.8,0.6 -0.9,1.8 -0.3,2.6 l 28.2,36 -67.6,-39 c -0.9,-0.5 -2,-0.2 -2.5,0.7 -0.5,0.9 -0.2,2 0.7,2.5 l 75.9,43.8 c 0,0 0,0 0.1,0 0.1,0 0.1,0.1 0.2,0.1 0,0 0,0 0.1,0 0,0 0,0 0.1,0 0,0 0.1,0 0.1,0 0.1,0 0.3,0.1 0.4,0.1 l 0,0 0,0 0,0 c 0,0 0,0 0,0 0.2,0 0.3,0 0.4,-0.1 0,0 0.1,0 0.1,0 0,0 0.1,0 0.1,0 0.1,0 0.1,-0.1 0.2,-0.1 0,0 0,0 0.1,0 l 74.7,-43.1 c 0.7,-0.4 1,-1.6 0.5,-2.5 z"
           inkscape:connector-curvature="0" />
        <circle
           style="fill:#e33131;fill-opacity:1"
           id="circle5298"
           r="2.3"
           cy="366.70001"
           cx="786.29999" />
        <circle
           style="fill:#e33131;fill-opacity:1"
           id="circle5300"
           r="2.3"
           cy="366.70001"
           cx="622.79999" />
        <path
           style="fill:#e33131;fill-opacity:1"
           id="path5308"
           d="M 894,117.5 708.4,10.4 c -2.1,-1.2 -4.7,-1.2 -6.8,0 L 516,117.5 c -2.1,1.2 -3.4,3.5 -3.4,5.9 l 0,214.3 c 0,2.4 1.3,4.7 3.4,5.9 l 185.6,107.1 c 1.1,0.6 2.2,0.9 3.4,0.9 1.2,0 2.4,-0.3 3.4,-0.9 L 894,343.6 c 2.1,-1.2 3.4,-3.5 3.4,-5.9 l 0,-214.3 c 0,-2.4 -1.3,-4.7 -3.4,-5.9 z m -189,-93.4 178.8,103.2 0,30.3 -21.9,0 c -1.3,0 -2.4,1.1 -2.4,2.4 l 0,7.1 -27.1,0 0,-55.2 c 0,-1.3 -1.1,-2.4 -2.4,-2.4 l -253,0 c -1.3,0 -2.4,1.1 -2.4,2.4 l 0,55.2 -27.1,0 0,-7.1 c 0,-1.3 -1.1,-2.4 -2.4,-2.4 l -19.1,0 0,-30.3 179,-103.2 z m 160.3,257.8 16.1,0 0,11.8 -16.1,0 0,-11.8 z m 0,-4.8 0,-11.8 16.1,0 0,11.8 -16.1,0 z m 18.5,-53.8 -0.3,-0.5 0.3,0 0,0.5 z m -3,-5.3 -2.6,-4.5 5.6,0 0,4.5 -3,0 z m -2.6,-9.2 3,-5.3 2.6,0 0,5.3 -5.6,0 z M 883.8,189.7 872,210 c 0,0 0,0.1 0,0.1 -0.1,0.1 -0.1,0.3 -0.2,0.4 0,0 0,0.1 0,0.1 0,0.2 -0.1,0.4 -0.1,0.6 0,0.2 0,0.4 0.1,0.6 0,0 0,0.1 0,0.1 0,0.1 0.1,0.3 0.2,0.4 0,0 0,0.1 0,0.1 l 11.8,20.4 0,27.8 -20.8,0 c -1.3,0 -2.4,1.1 -2.4,2.4 l 0,16.5 0,16.5 c 0,1.3 1.1,2.4 2.4,2.4 l 20.8,0 0,23.1 -30.3,0 0,-140.2 8.5,0 21.9,0 0,8.4 z m -355.3,13.9 3,5.3 -5.3,0 0,-5.3 2.3,0 z m 3.1,10 -2.6,4.4 -2.7,0 0,-4.5 5.3,0 z m -5.3,9.2 0,0 0,0 0,0 z m 15.7,54.3 -13.7,0 0,-11.8 13.7,0 0,11.8 z m 0,4.8 0,11.8 -13.7,0 0,-11.8 13.7,0 z m -15.7,16.5 18.1,0 c 1.3,0 2.4,-1.1 2.4,-2.4 l 0,-16.5 0,-16.5 c 0,-1.3 -1.1,-2.4 -2.4,-2.4 l -18.1,0 0,-28.3 11.5,-19.9 c 0,0 0,-0.1 0,-0.1 0.1,-0.1 0.1,-0.3 0.2,-0.4 0,0 0,-0.1 0,-0.1 0,-0.2 0.1,-0.4 0.1,-0.6 0,-0.2 0,-0.4 -0.1,-0.6 0,0 0,-0.1 0,-0.1 0,-0.1 -0.1,-0.3 -0.2,-0.4 0,0 0,-0.1 0,-0.1 l -11.5,-19.9 0,-8.9 19.1,0 8.5,0 0,140.3 -27.6,0 0,-23.1 z m 16.7,-129 0,7.1 -16.7,0 0,-14.2 16.7,0 0,7.1 z m 13.2,7.1 -8.5,0 0,-4.7 27.1,0 0,144.2 0,5.5 -16.3,0 0,-142.6 c 0,-1.3 -1,-2.4 -2.3,-2.4 z m 271.5,-7.1 0,144.2 -3.2,0 0,-12.2 c 0,-1.3 -1.1,-2.4 -2.4,-2.4 l -5.5,0 0,-12.2 c 0,-1.3 -1.1,-2.4 -2.4,-2.4 l -5.5,0 0,-12.2 c 0,-1.3 -1.1,-2.4 -2.4,-2.4 l -4.7,0 0,-88.7 4.7,0 c 1.3,0 2.4,-1.1 2.4,-2.4 l 0,-7.1 5.5,0 c 1.3,0 2.4,-1.1 2.4,-2.4 l 0,-26 c 0,-1.3 -1.1,-2.4 -2.4,-2.4 l -217.3,0 c -1.3,0 -2.4,1.1 -2.4,2.4 l 0,26 c 0,1.3 1.1,2.4 2.4,2.4 l 5.5,0 0,7.1 c 0,1.3 1.1,2.4 2.4,2.4 l 4.7,0 0,88.7 -4.7,0 c -1.3,0 -2.4,1.1 -2.4,2.4 l 0,12.2 -5.5,0 c -1.3,0 -2.4,1.1 -2.4,2.4 l 0,12.2 -9.2,0 c -1.3,0 -2.4,1.1 -2.4,2.4 l 0,12.2 -3.4,0 0,-144.2 0,-55.2 248.2,0 0,55.2 z m -215.9,7.1 -4.7,0 0,-4.7 32.3,0 0,4.7 -4.7,0 c -1.3,0 -2.4,1.1 -2.4,2.4 l 0,91 -18.1,0 0,-91 c 0,-1.3 -1.1,-2.4 -2.4,-2.4 z m -12.6,-9.4 0,-21.3 212.8,0 0,21.3 -5.5,0 -36.2,0 -128.5,0 -37,0 -5.6,0 z m 197.8,11.8 0,91 -17.3,0 0,-91 c 0,-1.3 -1.1,-2.4 -2.4,-2.4 l -4.7,0 0,-4.7 31.5,0 0,4.7 -4.7,0 c -1.3,0 -2.4,1.1 -2.4,2.4 z m -69.1,69.3 14.6,0 -12.2,21.1 -2.4,0 0,-21.1 z m 17.4,-4.7 -17.3,0 0,-14 25.4,0 -8.1,14 z m -17.4,-18.7 0,-15.5 16.4,0 9,15.5 -25.4,0 z m 0,-20.3 0,-19.5 2.4,0 11.2,19.5 -13.6,0 z m -4.7,22.7 0,42.1 -34.7,0 0,-23.4 0,-18.7 0,-20.3 0,-21.9 34.7,0 0,42.2 z m -39.4,-22.7 -13.3,0 11.2,-19.5 2.1,0 0,19.5 z m -16.1,4.7 16.1,0 0,15.5 -25,0 8.9,-15.5 z m 16.1,20.3 0,14 -17,0 -8.1,-14 25.1,0 z m 0,18.7 0,21.1 -2.1,0 -12.2,-21.1 14.3,0 z m 75.7,-19.9 c 0,0 0,0 0,0 0.1,-0.2 0.2,-0.3 0.2,-0.5 0,0 0,-0.1 0,-0.1 0,-0.2 0.1,-0.4 0.1,-0.6 0,-0.2 0,-0.4 -0.1,-0.6 0,0 0,-0.1 0,-0.1 0,-0.1 -0.1,-0.3 -0.2,-0.4 0,0 0,-0.1 0,-0.1 l -25.7,-44.5 c -0.4,-0.7 -1.2,-1.2 -2,-1.2 l -6.2,0 -39.4,0 -5.8,0 c -0.8,0 -1.6,0.5 -2,1.2 L 652.6,226 c 0,0 0,0.1 0,0.1 -0.1,0.1 -0.1,0.3 -0.2,0.4 0,0 0,0.1 0,0.1 0,0.2 -0.1,0.4 -0.1,0.6 0,0.2 0,0.4 0.1,0.6 0,0 0,0.1 0,0.1 0,0.1 0.1,0.3 0.2,0.4 0,0 0,0.1 0,0.1 l 24,41.6 -39.6,0 0,-88.7 4.7,0 c 1.3,0 2.4,-1.1 2.4,-2.4 l 0,-7.1 123.7,0 0,7.1 c 0,1.3 1.1,2.4 2.4,2.4 l 4.7,0 0,88.7 -39.5,0 24.1,-41.7 z m 39.9,46.3 4.7,0 0,9.9 -197,0 0,-9.9 4.7,0 187.6,0 z m 7.1,14.6 5.5,0 0,9.9 -212.8,0 0,-9.9 5.5,0 201.8,0 z m 7.8,14.6 5.5,0 0,9.9 -232.1,0 0,-9.9 9.2,0 217.4,0 z m -234.8,20.1 0,-5.5 5.8,0 236.9,0 5.5,0 0,5.5 0,4.3 -248.2,0 0,-4.3 z m 253,-7.9 0,-144.2 27.1,0 0,4.7 -8.5,0 c -1.3,0 -2.4,1.1 -2.4,2.4 l 0,142.6 -16.3,0 0,-5.5 z m 31.8,-139.5 0,-7.1 0,-7.1 19.5,0 0,14.2 -19.5,0 z M 705,437 526.3,333.8 l 0,-7.5 29.9,0 0,0 18.6,0 0,4.3 c 0,1.3 1.1,2.4 2.4,2.4 l 253,0 c 1.3,0 2.4,-1.1 2.4,-2.4 l 0,-4.3 18.6,0 0,0 32.7,0 0,7.5 L 705,437 Z"
           inkscape:connector-curvature="0" />
        <path
           style="fill:#000000;fill-opacity:1"
           id="path5310"
           d="m 638.1,134.6 c 0.8,0 1.4,-0.6 1.4,-1.4 l 0,-7.1 5.8,7.6 c 0.4,0.5 0.8,0.9 1.5,0.9 l 0.1,0 c 0.8,0 1.5,-0.6 1.5,-1.5 l 0,-10.5 c 0,-0.8 -0.6,-1.4 -1.4,-1.4 -0.8,0 -1.4,0.6 -1.4,1.4 l 0,6.8 -5.6,-7.4 c -0.4,-0.5 -0.8,-0.9 -1.5,-0.9 l -0.3,0 c -0.8,0 -1.5,0.6 -1.5,1.5 l 0,10.5 c 0,0.9 0.6,1.5 1.4,1.5 z"
           inkscape:connector-curvature="0" />
        <path
           style="fill:#000000;fill-opacity:1"
           id="path5312"
           d="m 658,134.7 c 4.1,0 7.1,-3.1 7.1,-6.8 l 0,0 c 0,-3.8 -2.9,-6.8 -7,-6.8 -4.1,0 -7.1,3.1 -7.1,6.8 l 0,0 c 0,3.8 2.9,6.8 7,6.8 z m -3.9,-6.8 c 0,-2.3 1.6,-4.1 4,-4.1 2.3,0 4,1.9 4,4.2 l 0,0 c 0,2.3 -1.6,4.1 -4,4.1 -2.4,-0.1 -4,-1.9 -4,-4.2 l 0,0 z"
           inkscape:connector-curvature="0" />
        <path
           style="fill:#000000;fill-opacity:1"
           id="path5314"
           d="m 669.1,134.5 3.7,0 c 4.2,0 7,-2.9 7,-6.6 l 0,0 c 0,-3.7 -2.9,-6.6 -7,-6.6 l -3.7,0 c -0.8,0 -1.5,0.6 -1.5,1.5 l 0,10.2 c 0.1,0.9 0.7,1.5 1.5,1.5 z m 1.5,-10.6 2.2,0 c 2.4,0 4,1.6 4,4 l 0,0 c 0,2.3 -1.6,4 -4,4 l -2.2,0 0,-8 z"
           inkscape:connector-curvature="0" />
        <path
           style="fill:#000000;fill-opacity:1"
           id="path5316"
           d="m 683.9,134.5 7.4,0 c 0.7,0 1.3,-0.6 1.3,-1.3 0,-0.7 -0.6,-1.3 -1.3,-1.3 l -6,0 0,-2.8 5,0 c 0.7,0 1.3,-0.6 1.3,-1.3 0,-0.7 -0.6,-1.3 -1.3,-1.3 l -5,0 0,-2.7 5.9,0 c 0.7,0 1.3,-0.6 1.3,-1.3 0,-0.7 -0.6,-1.3 -1.3,-1.3 l -7.3,0 c -0.8,0 -1.5,0.6 -1.5,1.5 l 0,10.3 c 0.1,0.9 0.7,1.5 1.5,1.5 z"
           inkscape:connector-curvature="0" />
        <path
           style="fill:#000000;fill-opacity:1"
           id="path5318"
           d="m 694.9,133.1 c 1.5,1.1 3.2,1.6 5,1.6 2.9,0 4.9,-1.5 4.9,-4.1 l 0,0 c 0,-2.3 -1.5,-3.3 -4.2,-4 -2.3,-0.6 -2.9,-0.9 -2.9,-1.7 l 0,0 c 0,-0.6 0.6,-1.2 1.7,-1.2 0.9,0 1.8,0.3 2.8,0.9 0.2,0.1 0.5,0.2 0.7,0.2 0.8,0 1.4,-0.6 1.4,-1.3 0,-0.6 -0.3,-1 -0.6,-1.2 -1.2,-0.8 -2.6,-1.2 -4.2,-1.2 -2.7,0 -4.6,1.6 -4.6,4 l 0,0 c 0,2.6 1.7,3.4 4.4,4 2.2,0.6 2.7,0.9 2.7,1.7 l 0,0 c 0,0.8 -0.7,1.2 -1.9,1.2 -1.3,0 -2.4,-0.5 -3.4,-1.2 -0.2,-0.1 -0.5,-0.3 -0.8,-0.3 -0.8,0 -1.4,0.6 -1.4,1.3 -0.2,0.7 0.1,1.1 0.4,1.3 z"
           inkscape:connector-curvature="0" />
        <path
           style="fill:#000000;fill-opacity:1"
           id="path5320"
           d="m 713.4,134.7 c 2.1,0 3.5,-0.6 4.7,-1.7 0.3,-0.2 0.5,-0.6 0.5,-1 0,-0.7 -0.6,-1.3 -1.4,-1.3 -0.3,0 -0.6,0.1 -0.9,0.3 -0.8,0.7 -1.6,1 -2.9,1 -2.3,0 -3.8,-1.9 -3.8,-4.2 l 0,0 c 0,-2.3 1.6,-4.1 3.8,-4.1 1,0 1.9,0.3 2.7,0.9 0.2,0.1 0.5,0.3 0.9,0.3 0.8,0 1.4,-0.6 1.4,-1.4 0,-0.5 -0.3,-0.9 -0.6,-1.2 -1.1,-0.8 -2.4,-1.3 -4.4,-1.3 -4.1,0 -6.9,3.1 -6.9,6.8 l 0,0 c 0.2,3.9 3.1,6.9 6.9,6.9 z"
           inkscape:connector-curvature="0" />
        <path
           style="fill:#000000;fill-opacity:1"
           id="path5322"
           d="m 722.7,134.6 c 0.8,0 1.5,-0.6 1.5,-1.5 l 0,-4 5.4,0 0,4 c 0,0.8 0.6,1.5 1.5,1.5 0.8,0 1.5,-0.6 1.5,-1.5 l 0,-10.5 c 0,-0.8 -0.6,-1.5 -1.5,-1.5 -0.8,0 -1.5,0.6 -1.5,1.5 l 0,3.9 -5.4,0 0,-3.9 c 0,-0.8 -0.6,-1.5 -1.5,-1.5 -0.8,0 -1.5,0.6 -1.5,1.5 l 0,10.5 c 0,0.9 0.6,1.5 1.5,1.5 z"
           inkscape:connector-curvature="0" />
        <path
           style="fill:#000000;fill-opacity:1"
           id="path5324"
           d="m 742,134.7 c 4.1,0 7,-3.1 7,-6.8 l 0,0 c 0,-3.8 -2.9,-6.8 -7,-6.8 -4.1,0 -7.1,3.1 -7.1,6.8 l 0,0 c 0.1,3.8 3,6.8 7.1,6.8 z m -4,-6.8 c 0,-2.3 1.6,-4.1 4,-4.1 2.3,0 4,1.9 4,4.2 l 0,0 c 0,2.3 -1.6,4.1 -4,4.1 -2.3,-0.1 -4,-1.9 -4,-4.2 l 0,0 z"
           inkscape:connector-curvature="0" />
        <path
           style="fill:#000000;fill-opacity:1"
           id="path5326"
           d="m 758.1,134.7 c 4.1,0 7.1,-3.1 7.1,-6.8 l 0,0 c 0,-3.8 -2.9,-6.8 -7,-6.8 -4.1,0 -7.1,3.1 -7.1,6.8 l 0,0 c 0,3.8 2.9,6.8 7,6.8 z m -4,-6.8 c 0,-2.3 1.6,-4.1 4,-4.1 2.3,0 4,1.9 4,4.2 l 0,0 c 0,2.3 -1.6,4.1 -4,4.1 -2.3,-0.1 -4,-1.9 -4,-4.2 l 0,0 z"
           inkscape:connector-curvature="0" />
        <path
           style="fill:#000000;fill-opacity:1"
           id="path5328"
           d="m 769.2,134.5 6.8,0 c 0.7,0 1.3,-0.6 1.3,-1.3 0,-0.7 -0.6,-1.3 -1.3,-1.3 l -5.4,0 0,-9.2 c 0,-0.8 -0.6,-1.5 -1.5,-1.5 -0.8,0 -1.5,0.6 -1.5,1.5 l 0,10.3 c 0.1,0.9 0.8,1.5 1.6,1.5 z"
           inkscape:connector-curvature="0" />
      </g>
      <path
         id="path5074-2"
         d="m 253.12454,926.46636 -2.4,0 c -0.6,0 -1.1,-0.5 -1.1,-1.1 0,-0.6 0.5,-1.1 1.1,-1.1 l 7.2,0 c 0.6,0 1.1,0.5 1.1,1.1 0,0.6 -0.5,1.1 -1.1,1.1 l -2.4,0 0,7.8 c 0,0.7 -0.5,1.2 -1.2,1.2 -0.7,0 -1.2,-0.5 -1.2,-1.2 l 0,-7.8 z"
         style="fill:#231f20"
         inkscape:connector-curvature="0" />
      <path
         id="path5184-1"
         d="m 296.65916,929.88136 c 0.36676,-0.5616 1.18441,-0.6687 1.74609,-0.3019 0.56168,0.3667 0.66871,1.1844 0.30196,1.7461 l -4.65332,6.3084 3.71018,2.7431 c 0.46234,0.3553 0.58083,1.0736 0.22553,1.536 -0.3553,0.4623 -1.07361,0.5808 -1.53594,0.2255 l -4.63488,-3.4537 c -0.56168,-0.3668 -0.66871,-1.1844 -0.30196,-1.7461 l 5.14234,-7.0574 z"
         style="fill:#231f20"
         inkscape:connector-curvature="0" />
      <path
         id="path4932-5"
         d="m 204.85061,935.86746 c -0.37506,-0.5561 -0.26727,-1.2761 0.27598,-1.7504 l 0.18538,-0.125 c 0.45701,-0.3621 0.86658,-0.3147 1.28909,-0.1681 l 5.30716,2.0308 -0.53877,-5.6781 c -0.0647,-0.4958 0.0949,-0.8191 0.45272,-1.1683 l 0.1854,-0.125 c 0.55616,-0.3751 1.27615,-0.2673 1.75037,0.2759 l 5.45793,7.0535 c 0.37507,0.5561 0.26727,1.2761 -0.27597,1.7504 -0.55616,0.375 -1.27614,0.2672 -1.75038,-0.276 l -3.39719,-4.3976 0.31893,3.9922 c 0.0647,0.4959 -0.0949,0.8192 -0.45272,1.1684 -0.35784,0.3492 -0.76742,0.3018 -1.18993,0.1552 l -3.70337,-1.3323 3.3972,4.3976 c 0.37506,0.5562 0.26727,1.2761 -0.28891,1.6512 -0.55617,0.3751 -1.27615,0.2673 -1.63829,-0.1897 l -5.38463,-7.2647 z"
         style="fill:#231f20"
         inkscape:connector-curvature="0" />
    </g>
  </g>
</svg>
