<?xml version="1.0" encoding="UTF-8"?>
<svg width="264px" height="38px" viewBox="0 0 264 38" version="1.1" xmlns="http://www.w3.org/2000/svg" xmlns:xlink="http://www.w3.org/1999/xlink">
    <!-- Generator: Sketch 47.1 (45422) - http://www.bohemiancoding.com/sketch -->
    <title>7d99ce33ffeb87771203d8929c60ccc68c5ad38b-Logo-White-Offsite</title>
    <desc>Created with Sketch.</desc>
    <defs></defs>
    <g id="Page-1" stroke="none" stroke-width="1" fill="none" fill-rule="evenodd">
        <g id="7d99ce33ffeb87771203d8929c60ccc68c5ad38b-Logo-White-Offsite" fill="#FFFFFE">
            <path d="M156.964,21.599 C156.566,21.529 155.231,21.307 154.84,21.235 C152.731,20.856 150.925,20.363 150.925,18.241 C150.925,16.419 152.835,15.569 155.212,15.569 C158.749,15.569 161.851,17.172 162.205,17.349 L164.144,12.234 C163.398,11.847 160.242,10.161 155.272,10.161 C150.72,10.161 145.16,12.551 145.16,18.498 C145.16,23.82 148.963,25.528 152.628,26.173 C153.134,26.266 154.725,26.538 155.18,26.617 C157.645,27.034 158.999,27.952 158.999,29.565 C158.999,31.612 157.076,32.572 154.165,32.572 C149.504,32.572 146.769,31.183 145.979,30.858 L143.831,35.862 C144.498,36.206 147.68,38 153.889,38 C159.914,38 164.749,35.016 164.749,29.462 C164.702,24.292 161.227,22.331 156.964,21.599" id="Fill-1"></path>
            <path d="M175.361,0.847 L169.659,4.001 L169.659,10.681 L166.657,10.681 L166.657,16.134 L169.659,16.134 L169.659,27.923 C169.659,32.959 171.729,37.481 179.03,37.481 L181.313,37.481 L181.313,32.023 L180.457,32.023 C176.868,32.023 175.361,29.952 175.361,27.139 L175.361,16.134 L181.91,16.134 L181.91,10.681 L175.361,10.681 L175.361,0.847" id="Fill-2"></path>
            <path d="M219.909,15.705 C222.135,15.705 224.414,16.717 225.098,19.166 L230.272,17.198 C228.823,12.076 224.065,10.161 219.868,10.161 C212.348,10.161 209.316,14.831 209.316,19.37 L209.316,28.789 C209.316,33.326 212.348,38 219.868,38 C224.065,38 228.823,36.082 230.272,30.96 L225.098,28.993 C224.414,31.439 222.135,32.457 219.909,32.457 C216.035,32.457 215.008,30.336 215.008,27.918 L215.008,20.239 C215.008,17.824 216.035,15.705 219.909,15.705" id="Fill-3"></path>
            <polyline id="Fill-4" points="244.291 22.718 254.951 10.681 247.939 10.681 238.77 21.173 238.77 0.848 233.063 0.848 233.063 37.481 238.77 37.481 238.77 28.951 240.642 26.837 248.807 37.481 255.65 37.481 244.291 22.718"></polyline>
            <path d="M261.574,12.379 C261.574,12.167 261.44,11.968 261.082,11.968 L260.724,11.968 L260.724,12.871 L261.082,12.871 C261.468,12.871 261.574,12.698 261.574,12.419 L261.574,12.379 Z M261.521,14.293 C261.494,14.293 261.468,14.28 261.454,14.254 L261.028,13.323 L260.724,13.323 L260.724,14.24 C260.724,14.267 260.709,14.293 260.684,14.293 L260.151,14.293 C260.125,14.293 260.098,14.267 260.098,14.24 L260.098,11.489 L261.162,11.489 C261.879,11.489 262.198,11.941 262.198,12.366 L262.198,12.419 C262.198,12.792 261.999,13.137 261.64,13.297 L262.172,14.24 C262.185,14.267 262.172,14.293 262.145,14.293 L261.521,14.293 Z M261.082,10.784 C259.873,10.784 258.995,11.728 258.995,12.938 C258.995,14.067 259.886,15.024 261.082,15.024 C262.291,15.024 263.156,14.067 263.156,12.938 C263.156,11.741 262.212,10.784 261.082,10.784 Z M261.082,15.649 C259.54,15.649 258.291,14.479 258.291,12.938 C258.291,11.395 259.54,10.159 261.082,10.159 C262.61,10.159 263.86,11.409 263.86,12.938 C263.86,14.479 262.624,15.649 261.082,15.649 L261.082,15.649 Z" id="Fill-5"></path>
            <path d="M197.861,16.529 L191.932,16.529 C190.989,16.529 190.224,17.295 190.224,18.234 L190.224,24.668 L184.375,24.668 L184.375,18.234 C184.375,14.061 187.756,10.681 191.932,10.681 L197.861,10.681 L197.861,16.529" id="Fill-6"></path>
            <path d="M193.035,31.632 L198.968,31.632 C199.907,31.632 200.674,30.867 200.674,29.925 L200.674,23.493 L206.522,23.493 L206.522,29.925 C206.522,34.098 203.14,37.481 198.968,37.481 L193.035,37.481 L193.035,31.632" id="Fill-7"></path>
            <path d="M96.338,10.681 L102.885,10.681 L102.885,16.134 L96.338,16.134 L96.338,27.139 C96.338,29.952 97.844,32.023 101.43,32.023 L102.286,32.023 L102.286,37.481 L100.002,37.481 C92.699,37.481 90.635,32.959 90.635,27.923 L90.635,16.134 L81.038,16.134 L81.038,27.139 C81.038,29.952 82.547,32.023 86.133,32.023 L86.986,32.023 L86.986,37.481 L84.701,37.481 C77.401,37.481 75.333,32.959 75.333,27.923 L75.333,16.134 L72.442,16.134 L72.442,10.681 L75.333,10.681 L75.333,4.001 L81.038,0.847 L81.038,10.681 L90.635,10.681 L90.635,4.001 L96.338,0.847 L96.338,10.681" id="Fill-8"></path>
            <path d="M34.779,10.161 C32.975,10.161 31.144,10.51 29.498,11.208 L29.498,0.847 L23.795,0.847 L23.795,37.481 L29.498,37.481 L29.498,16.539 C30.644,15.819 32.293,15.389 33.905,15.389 C37.49,15.389 39.177,17.382 39.177,20.321 L39.177,37.481 L44.875,37.481 L44.875,19.542 C44.875,14.133 40.957,10.161 34.779,10.161" id="Fill-9"></path>
            <path d="M63.683,32.151 C62.599,32.736 61.227,33.071 59.862,33.071 C55.606,33.071 54.006,30.903 54.006,27.913 L54.006,10.681 L48.304,10.681 L48.304,28.018 C48.304,34.757 52.199,38 59.16,38 C62.494,38 66.186,37.157 69.383,35.773 L69.383,10.681 L63.683,10.681 L63.683,32.151" id="Fill-10"></path>
            <path d="M13.132,21.599 C12.737,21.529 11.4,21.307 11.008,21.235 C8.903,20.856 7.093,20.363 7.093,18.241 C7.093,16.419 9.001,15.569 11.381,15.569 C14.917,15.569 18.019,17.172 18.373,17.349 L20.31,12.234 C19.57,11.847 16.411,10.161 11.438,10.161 C6.889,10.161 1.328,12.551 1.328,18.498 C1.328,23.82 5.127,25.528 8.797,26.173 C9.302,26.266 10.894,26.538 11.352,26.617 C13.816,27.034 15.164,27.952 15.164,29.565 C15.164,31.612 13.247,32.572 10.337,32.572 C5.672,32.572 2.937,31.183 2.146,30.858 L0,35.862 C0.669,36.206 3.85,38 10.059,38 C16.084,38 20.919,35.016 20.919,29.462 C20.867,24.292 17.393,22.331 13.132,21.599" id="Fill-11"></path>
            <path d="M120.76,22.049 L111.145,22.049 L111.145,20.099 C111.145,17.924 112.237,15.591 115.982,15.591 C119.592,15.591 120.76,17.863 120.76,19.993 L120.76,22.049 Z M126.463,19.37 C126.463,14.468 122.727,10.159 116.009,10.159 C108.383,10.159 105.455,14.921 105.455,19.37 L105.455,28.271 C105.455,34.429 109.39,38 116.009,38 C121.848,38 124.879,34.624 125.779,32.596 L120.965,29.704 C120.554,30.895 118.648,32.566 116.047,32.566 C112.521,32.566 111.165,30.599 111.165,28.134 L111.145,26.666 L126.463,26.666 L126.463,19.37 L126.463,19.37 Z" id="Fill-12"></path>
            <path d="M130.112,19.38 L130.112,37.481 L135.81,37.481 L135.81,19.867 C135.81,18.329 136.683,15.7 140.868,15.7 C141.525,15.7 143.01,15.887 143.485,15.976 L143.485,10.448 C142.971,10.324 141.793,10.159 140.576,10.159 C133.328,10.159 130.112,14.705 130.112,19.38" id="Fill-13"></path>
        </g>
    </g>
</svg>